<svg width="30" height="10" viewBox="0 0 30 10" fill="none" xmlns="http://www.w3.org/2000/svg">
    <path d="M10 0.5C9.44771 0.5 9 0.947715 9 1.5V1.75C9 2.30228 9.44771 2.75 10 2.75H11.375C11.9273 2.75 12.375 3.19772 12.375 3.75V8.5C12.375 9.05229 12.8227 9.5 13.375 9.5H13.625C14.1773 9.5 14.625 9.05229 14.625 8.5V3.75C14.625 3.19772 15.0727 2.75 15.625 2.75H17C17.5523 2.75 18 2.30228 18 1.75V1.5C18 0.947715 17.5523 0.5 17 0.5H10ZM6 0.5H1.5C0.675 0.5 0 1.175 0 2V8.5C0 9.05229 0.447715 9.5 1 9.5H1.25C1.80228 9.5 2.25 9.05229 2.25 8.5V8.25C2.25 7.69772 2.69772 7.25 3.25 7.25H4.25C4.80228 7.25 5.25 7.69772 5.25 8.25V8.5C5.25 9.05229 5.69772 9.5 6.25 9.5H6.5C7.05228 9.5 7.5 9.05228 7.5 8.5V2C7.5 1.175 6.825 0.5 6 0.5ZM5.25 4C5.25 4.55228 4.80228 5 4.25 5H3.25C2.69772 5 2.25 4.55228 2.25 4V3.75C2.25 3.19772 2.69772 2.75 3.25 2.75H4.25C4.80228 2.75 5.25 3.19772 5.25 3.75V4ZM28.5 0.5H21.75C20.925 0.5 20.25 1.175 20.25 2V8.5C20.25 9.05229 20.6977 9.5 21.25 9.5H21.5C22.0523 9.5 22.5 9.05229 22.5 8.5V3.5C22.5 3.08579 22.8358 2.75 23.25 2.75C23.6642 2.75 24 3.08579 24 3.5V7C24 7.55228 24.4477 8 25 8H25.25C25.8023 8 26.25 7.55228 26.25 7V3.485C26.25 3.07079 26.5858 2.735 27 2.735C27.4142 2.735 27.75 3.07079 27.75 3.485V8.5C27.75 9.05228 28.1977 9.5 28.75 9.5H29C29.5523 9.5 30 9.05228 30 8.5V2C30 1.175 29.325 0.5 28.5 0.5Z" fill="white"/>
</svg>
