<svg width="27" height="21" viewBox="0 0 27 21" fill="none" xmlns="http://www.w3.org/2000/svg">
    <path d="M23.8125 0.1875H3.1875C1.75664 0.1875 0.622266 1.33477 0.622266 2.76562L0.609375 18.2344C0.609375 19.6652 1.75664 20.8125 3.1875 20.8125H23.8125C25.2434 20.8125 26.3906 19.6652 26.3906 18.2344V2.76562C26.3906 1.33477 25.2434 0.1875 23.8125 0.1875ZM23.8125 17.2344C23.8125 17.7867 23.3648 18.2344 22.8125 18.2344H4.1875C3.63522 18.2344 3.1875 17.7867 3.1875 17.2344V11.5C3.1875 10.9477 3.63522 10.5 4.1875 10.5H22.8125C23.3648 10.5 23.8125 10.9477 23.8125 11.5V17.2344ZM23.8125 4.34375C23.8125 4.89603 23.3648 5.34375 22.8125 5.34375H4.1875C3.63522 5.34375 3.1875 4.89603 3.1875 4.34375V3.76562C3.1875 3.21334 3.63522 2.76562 4.1875 2.76562H22.8125C23.3648 2.76562 23.8125 3.21334 23.8125 3.76562V4.34375Z" fill="white"/>
</svg>
