<svg width="25" height="25" viewBox="0 0 25 25" fill="none" xmlns="http://www.w3.org/2000/svg">
    <path d="M6.65296 12.2188C6.65296 11.6665 6.20525 11.2188 5.65296 11.2188H5.12664C4.57436 11.2188 4.12664 11.6665 4.12664 12.2188V18.9688C4.12664 19.521 4.57436 19.9688 5.12664 19.9688H5.65296C6.20525 19.9688 6.65296 19.521 6.65296 18.9688V12.2188ZM14.2319 12.2188C14.2319 11.6665 13.7842 11.2188 13.2319 11.2188H12.7056C12.1533 11.2188 11.7056 11.6665 11.7056 12.2188V18.9688C11.7056 19.521 12.1533 19.9688 12.7056 19.9688H13.2319C13.7842 19.9688 14.2319 19.521 14.2319 18.9688V12.2188ZM24.9688 23.4688C24.9688 22.9165 24.521 22.4688 23.9688 22.4688H1.96875C1.41647 22.4688 0.96875 22.9165 0.96875 23.4688V23.9688C0.96875 24.521 1.41647 24.9688 1.96875 24.9688H23.9688C24.521 24.9688 24.9688 24.521 24.9688 23.9688V23.4688ZM21.8109 12.2188C21.8109 11.6665 21.3631 11.2188 20.8109 11.2188H20.2845C19.7323 11.2188 19.2845 11.6665 19.2845 12.2188V18.9688C19.2845 19.521 19.7323 19.9688 20.2845 19.9688H20.8109C21.3631 19.9688 21.8109 19.521 21.8109 18.9688V12.2188ZM12.5071 3.03401C12.7964 2.88342 13.1411 2.88342 13.4304 3.03401L15.9239 4.33169C16.8521 4.8148 16.5087 6.21875 15.4622 6.21875H10.4753C9.42883 6.21875 9.08536 4.8148 10.0136 4.33169L12.5071 3.03401ZM13.4307 0.209341C13.1412 0.0585596 12.7963 0.0585596 12.5068 0.209341L1.50682 5.93851C1.17615 6.11073 0.96875 6.4526 0.96875 6.82542V7.71875C0.96875 8.27103 1.41647 8.71875 1.96875 8.71875H23.9688C24.521 8.71875 24.9688 8.27103 24.9688 7.71875V6.82542C24.9688 6.4526 24.7613 6.11073 24.4307 5.93851L13.4307 0.209341Z" fill="white"/>
</svg>
