<svg width="16" height="24" viewBox="0 0 16 24" fill="none" xmlns="http://www.w3.org/2000/svg">
    <path d="M12.5714 0H3.42857C1.53143 0 0 1.46182 0 3.27273V20.7273C0 22.5382 1.53143 24 3.42857 24H12.5714C14.4686 24 16 22.5382 16 20.7273V3.27273C16 1.46182 14.4686 0 12.5714 0ZM13.7143 17.5455C13.7143 18.0977 13.2666 18.5455 12.7143 18.5455H3.28572C2.73343 18.5455 2.28571 18.0977 2.28571 17.5455V4.27273C2.28571 3.72044 2.73343 3.27273 3.28571 3.27273H12.7143C13.2666 3.27273 13.7143 3.72044 13.7143 4.27273V17.5455ZM10.2857 21.2727C10.2857 21.574 10.0415 21.8182 9.74026 21.8182H6.25974C5.95849 21.8182 5.71429 21.574 5.71429 21.2727C5.71429 20.9715 5.95849 20.7273 6.25974 20.7273H9.74026C10.0415 20.7273 10.2857 20.9715 10.2857 21.2727Z" fill="white"/>
</svg>
